<svg xmlns="http://www.w3.org/2000/svg" viewBox="0 0 1024 1024">
<path d="M 164.25,440.0 L 164.0,439.25 L 163.75,439.0 L 163.0,438.75 L 162.25,438.0 L 162.16666666666666,437.0 L 162.25,436.0 L 162.0,435.8333333333333 L 161.0,435.5 L 160.25,435.0 L 160.0,434.95454545454544 L 159.75,435.0 L 159.5,436.0 L 159.0,436.5 L 158.875,437.0 L 159.0,437.0882352941176 L 160.0,437.1 L 161.0,437.25 L 161.75,438.0 L 162.0,438.1666666666667 L 162.83333333333334,439.0 L 163.0,439.0833333333333 L 163.91666666666666,440.0 L 164.0,440.1 L 164.25,440.0 Z M 162.03571428571428,442.0 L 162.0,441.975 L 161.75,442.0 L 162.0,442.0625 L 162.03571428571428,442.0 Z M 167.3,443.0 L 167.0,442.5 L 166.92857142857142,443.0 L 167.0,443.0625 L 167.3,443.0 Z M 164.5,447.0 L 164.25,446.0 L 164.0,445.92857142857144 L 163.875,446.0 L 163.89285714285714,447.0 L 164.0,447.5 L 164.5,447.0 Z " />
</svg>