<svg xmlns="http://www.w3.org/2000/svg" viewBox="0 0 1024 1024">
<path d="M 118.25,720.0 L 118.0,719.9 L 117.83333333333333,720.0 L 118.0,720.25 L 118.25,720.0 Z M 95.25,723.0 L 96.0,722.1 L 96.1,722.0 L 96.0,721.75 L 95.25,721.0 L 95.0,720.9 L 94.75,721.0 L 94.5,722.0 L 94.5,723.0 L 95.0,723.3 L 95.25,723.0 Z M 107.25,723.0 L 107.125,722.0 L 107.0,721.9 L 106.0,721.9 L 105.9375,722.0 L 106.0,722.25 L 106.75,723.0 L 107.0,723.25 L 107.25,723.0 Z M 117.25,723.0 L 117.125,722.0 L 117.0,721.8333333333334 L 116.9,722.0 L 116.83333333333333,723.0 L 117.0,723.25 L 117.25,723.0 Z M 120.1,724.0 L 120.0,723.75 L 119.9,724.0 L 120.0,724.25 L 120.1,724.0 Z M 120.25,732.0 L 121.0,731.5 L 121.3,731.0 L 121.3,730.0 L 121.0,729.75 L 120.0,729.5 L 119.5,729.0 L 119.5,728.0 L 119.5,727.0 L 119.0,726.5 L 118.25,726.0 L 118.0,725.75 L 117.875,726.0 L 117.92857142857143,727.0 L 117.95,728.0 L 118.0,728.25 L 118.5,729.0 L 118.9375,730.0 L 119.0,730.25 L 119.5,731.0 L 119.75,732.0 L 120.0,732.25 L 120.25,732.0 Z M 95.25,732.0 L 95.0,731.5 L 94.75,732.0 L 95.0,732.25 L 95.25,732.0 Z M 89.3,734.0 L 89.0,733.75 L 88.7,734.0 L 89.0,734.375 L 89.3,734.0 Z M 123.125,740.0 L 123.125,739.0 L 123.0,738.75 L 122.5,738.0 L 122.5,737.0 L 123.0,736.25 L 123.1,736.0 L 123.0,735.875 L 122.75,736.0 L 122.0,736.5 L 121.8125,737.0 L 121.7,738.0 L 122.0,738.5 L 122.75,739.0 L 122.9,740.0 L 123.0,740.0625 L 123.125,740.0 Z M 113.1,737.0 L 113.0,736.75 L 112.75,737.0 L 113.0,737.25 L 113.1,737.0 Z M 114.125,739.0 L 114.0,738.75 L 113.75,739.0 L 114.0,739.25 L 114.125,739.0 Z " />
</svg>