<svg xmlns="http://www.w3.org/2000/svg" viewBox="0 0 1024 1024">
<path d="M 261.3,851.0 L 261.3,850.0 L 261.0,849.75 L 260.5,850.0 L 260.5,851.0 L 261.0,851.5 L 261.3,851.0 Z M 256.5,856.0 L 257.0,855.5 L 258.0,855.5 L 258.5,855.0 L 259.0,854.5 L 259.5,854.0 L 259.0,853.7 L 258.0,853.25 L 257.75,853.0 L 257.3,852.0 L 257.0,851.75 L 256.5,852.0 L 256.0,852.5 L 255.5,853.0 L 255.0,853.5 L 254.0,853.5 L 253.0,853.7 L 252.0,853.7 L 251.5,854.0 L 251.5,855.0 L 252.0,855.5 L 253.0,855.5 L 253.75,856.0 L 254.0,856.1 L 255.0,856.25 L 256.0,856.5 L 256.5,856.0 Z M 262.125,854.0 L 262.0,853.875 L 261.75,854.0 L 262.0,854.25 L 262.125,854.0 Z M 250.5,855.0 L 250.0,854.5 L 249.0,854.5 L 248.5,855.0 L 249.0,855.5 L 250.0,855.5 L 250.5,855.0 Z M 246.5,857.0 L 246.5,856.0 L 246.0,855.5 L 245.75,856.0 L 245.75,857.0 L 246.0,857.5 L 246.5,857.0 Z M 244.5,859.0 L 244.5,858.0 L 244.0,857.75 L 243.25,858.0 L 243.7,859.0 L 244.0,859.25 L 244.5,859.0 Z M 270.1666666666667,859.0 L 270.0,858.5 L 269.5,859.0 L 270.0,859.75 L 270.1666666666667,859.0 Z M 259.375,873.0 L 259.0,872.5 L 258.25,872.0 L 259.0,871.5 L 259.5,871.0 L 260.0,870.5 L 260.5,870.0 L 261.0,869.5 L 261.5,869.0 L 261.5,868.0 L 261.0,867.5 L 260.5,867.0 L 260.5,866.0 L 261.0,865.5 L 261.5,865.0 L 261.5,864.0 L 261.0,863.5 L 260.5,863.0 L 260.0,862.5 L 259.0,862.75 L 258.0,862.9 L 257.25,862.0 L 257.5,861.0 L 257.3,860.0 L 257.0,859.75 L 256.5,860.0 L 256.0,860.5 L 255.0,860.5 L 254.5,861.0 L 255.0,861.5 L 255.5,862.0 L 255.5,863.0 L 255.75,864.0 L 256.0,864.5 L 256.5,865.0 L 257.0,865.5 L 257.5,866.0 L 257.5,867.0 L 258.0,867.5 L 259.0,867.5 L 259.5,868.0 L 259.0,868.5 L 258.0,868.5 L 257.5,869.0 L 257.0,869.5 L 256.5,869.0 L 256.5,868.0 L 256.0,867.7 L 255.0,867.5 L 254.0,867.5 L 253.0,867.5 L 252.0,867.5 L 251.5,868.0 L 251.0,868.5 L 250.5,869.0 L 250.5,870.0 L 250.0,870.5 L 249.5,871.0 L 249.0,871.5 L 248.5,871.0 L 248.0,870.75 L 247.75,871.0 L 248.0,871.5 L 248.5,872.0 L 249.0,872.5 L 249.5,872.0 L 250.0,871.5 L 251.0,871.5 L 251.5,871.0 L 252.0,870.25 L 252.25,870.0 L 253.0,869.5 L 254.0,869.5 L 254.75,870.0 L 255.0,870.25 L 256.0,870.25 L 256.75,871.0 L 257.0,871.5 L 257.75,872.0 L 257.0,872.75 L 256.75,873.0 L 257.0,873.0714285714286 L 257.25,873.0 L 258.0,872.25 L 258.5,873.0 L 259.0,873.375 L 259.375,873.0 Z M 262.25,861.0 L 262.0,860.75 L 261.0,860.75 L 260.25,860.0 L 260.0,859.9 L 259.875,860.0 L 259.75,861.0 L 260.0,861.25 L 261.0,861.1 L 262.0,861.25 L 262.25,861.0 Z M 251.5,865.0 L 251.5,864.0 L 251.5,863.0 L 251.5,862.0 L 252.0,861.5 L 252.5,861.0 L 252.0,860.5 L 251.0,860.5 L 250.75,861.0 L 250.625,862.0 L 250.25,863.0 L 250.0,863.25 L 249.5,864.0 L 249.5,865.0 L 250.0,865.5 L 251.0,865.5 L 251.5,865.0 Z M 248.5,864.0 L 248.0,863.5 L 247.7,864.0 L 248.0,864.5 L 248.5,864.0 Z M 253.5,866.0 L 253.5,865.0 L 253.5,864.0 L 253.0,863.5 L 252.5,864.0 L 252.5,865.0 L 252.5,866.0 L 253.0,866.5 L 253.5,866.0 Z M 258.0,865.5 L 257.5,865.0 L 258.0,864.5 L 258.5,865.0 L 258.0,865.5 Z M 243.25,866.0 L 243.0,865.5 L 242.5,866.0 L 243.0,866.25 L 243.25,866.0 Z M 248.5,867.0 L 248.0,866.5 L 247.8125,867.0 L 248.0,867.25 L 248.5,867.0 Z M 258.0,871.5 L 257.75,871.0 L 257.75,870.0 L 258.0,869.75 L 259.0,869.75 L 259.25,870.0 L 259.0,870.25 L 258.25,871.0 L 258.0,871.5 Z M 240.5,871.0 L 240.0,870.5 L 239.5,871.0 L 240.0,871.25 L 240.5,871.0 Z M 269.1363636363636,872.0 L 269.0,871.8846153846154 L 268.75,872.0 L 269.0,872.0833333333334 L 269.1363636363636,872.0 Z M 254.25,873.0 L 254.0,872.75 L 253.0,872.875 L 252.92857142857142,873.0 L 253.0,873.25 L 254.0,873.5 L 254.25,873.0 Z M 252.25,879.0 L 252.0,878.75 L 251.0,878.5 L 250.5,878.0 L 250.0,877.75 L 249.7,878.0 L 249.5,879.0 L 250.0,879.25 L 251.0,879.25 L 252.0,879.25 L 252.25,879.0 Z M 261.1666666666667,880.0 L 261.0,879.625 L 260.0,879.25 L 259.75,880.0 L 260.0,880.1875 L 261.0,880.1153846153846 L 261.1666666666667,880.0 Z M 255.04166666666666,888.0 L 256.0,887.0416666666666 L 256.01785714285717,887.0 L 256.1,886.0 L 257.0,885.1 L 257.05,885.0 L 257.2142857142857,884.0 L 257.25,883.0 L 257.25,882.0 L 258.0,881.5 L 258.5,881.0 L 258.0,880.5 L 257.75,881.0 L 257.0,881.9 L 256.875,882.0 L 256.75,883.0 L 256.0,883.75 L 255.75,884.0 L 255.875,885.0 L 255.91666666666666,886.0 L 255.75,887.0 L 255.0,887.75 L 254.91666666666666,888.0 L 255.0,888.25 L 255.04166666666666,888.0 Z M 250.5,882.0 L 250.0,881.75 L 249.7,882.0 L 250.0,882.5 L 250.5,882.0 Z M 237.25,887.0 L 237.0,886.75 L 236.5,887.0 L 237.0,887.5 L 237.25,887.0 Z M 246.03571428571428,900.0 L 246.0,899.8333333333334 L 245.91666666666666,900.0 L 246.0,900.25 L 246.03571428571428,900.0 Z M 247.01785714285714,907.0 L 247.03846153846155,906.0 L 247.0,905.875 L 246.92857142857142,906.0 L 246.5,907.0 L 247.0,907.125 L 247.01785714285714,907.0 Z " />
</svg>