<svg xmlns="http://www.w3.org/2000/svg" viewBox="0 0 1024 1024">
<path d="M 796.0086206896551,466.0 L 796.0,465.875 L 795.9977064220184,466.0 L 796.0,466.01666666666665 L 796.0086206896551,466.0 Z M 812.1666666666666,478.0 L 812.0,477.75 L 811.9,478.0 L 812.0,478.25 L 812.1666666666666,478.0 Z M 806.1,482.0 L 806.125,481.0 L 806.0714285714286,480.0 L 806.0,479.875 L 805.9848484848485,480.0 L 805.9814814814815,481.0 L 805.9814814814815,482.0 L 806.0,482.125 L 806.1,482.0 Z M 771.25,481.0 L 771.0,480.9761904761905 L 770.75,481.0 L 771.0,481.025 L 771.25,481.0 Z M 809.375,488.0 L 810.0,487.375 L 810.375,487.0 L 810.5,486.0 L 811.0,485.25 L 811.125,485.0 L 811.5,484.0 L 811.0,483.7 L 810.125,483.0 L 810.0,482.75 L 809.75,483.0 L 809.0,483.75 L 808.9285714285714,484.0 L 808.5,485.0 L 808.0,485.75 L 807.8333333333334,486.0 L 807.8333333333334,487.0 L 807.9285714285714,488.0 L 808.0,488.25 L 809.0,488.375 L 809.375,488.0 Z M 841.0357142857143,812.0 L 841.0294117647059,811.0 L 841.0,810.8333333333334 L 840.9285714285714,811.0 L 840.9285714285714,812.0 L 841.0,812.0714285714286 L 841.0357142857143,812.0 Z M 850.25,858.0 L 851.0,857.25 L 851.0357142857143,857.0 L 851.0,856.8333333333334 L 850.75,857.0 L 850.0,857.75 L 849.8333333333334,858.0 L 850.0,858.125 L 850.25,858.0 Z " />
</svg>